<svg id="Layer_1" data-name="Layer 1" xmlns="http://www.w3.org/2000/svg" viewBox="0 0 912.37 181.9"><defs><style>.cls-1{fill:#15d5d9;}.cls-2{fill:#004e59;}</style></defs><title>StraightBlue</title><polygon class="cls-1" points="219.8 81.7 180.4 144.6 157 181.9 102.6 94.9 62.8 31.4 49.6 52.4 31.2 81.7 68 81.7 78.8 99 0 99 39.4 36.1 62.8 -1.2 117.2 85.7 157 149.3 170.2 128.3 188.6 99 151.8 99 141 81.7 219.8 81.7"/><path class="cls-2" d="M350.27,30h23.6l49.9,120.5H397l-10.7-26.8H337l-10.7,26.8h-26.1Zm27,70.4-15.5-38.8-15.5,38.8Z"/><path class="cls-2" d="M433.47,30h23.6l54.6,74.2V30H537V150.5h-21.8l-56.4-76.6v76.6h-25.3V30Z"/><path class="cls-2" d="M556.67,30h45.4c36.6,0,61.9,26,61.9,59.9v.3c0,33.9-25.3,60.3-61.9,60.3h-45.4Zm25.6,23.9v72.6h19.8c21,0,35.1-14.6,35.1-36v-.3c0-21.3-14.1-36.3-35.1-36.3Z"/><path class="cls-2" d="M673.27,90.6v-.3c0-33.1,26.1-60.3,62.1-60.3s61.7,26.8,61.7,59.9v.3c0,33.1-26.1,60.3-62.1,60.3S673.27,123.7,673.27,90.6Zm97,0v-.3c0-20-14.6-36.6-35.3-36.6S700,70,700,90v.3c0,20,14.6,36.6,35.3,36.6S770.27,110.6,770.27,90.6Z"/><path class="cls-2" d="M811.57,30h53.3c14.8,0,26.3,4.3,34,12.2,6.5,6.7,10,16.2,10,27.5V70c0,19.5-10.2,31.7-25,37.4l28.5,43h-30l-25-38.6h-20.1v38.6h-25.6V30Zm51.6,58.5c12.5,0,19.6-6.9,19.6-17v-.3c0-11.4-7.7-17.2-20.1-17.2h-25.5V88.6h26Z"/></svg>